<svg xmlns="http://www.w3.org/2000/svg" xmlns:xlink="http://www.w3.org/1999/xlink" xmlns:fi="http://pattern.flaticon.com/" x="0" y="0" width="1600" height="800" viewBox="0 0 1600 800"><rect x="0px" y="0px" width="100%" height="100%" opacity="1" fill="#7109b2"/><defs><path d="M165,0C74.019,0,0,74.019,0,165s74.019,165,165,165c90.982,0,165-74.019,165-165S255.982,0,165,0z" transform="matrix(0.03030303120613098 0 0 0.03030303120613098 345 82.5)" id="L1_17" fill="#b50ff2"/><g transform="matrix(0.15582148730754852 0 0 0.15582148730754852 340 165)" id="L1_16"><path d="M110.93,24.89c0-0.44-0.055-0.907-0.192-1.32c-0.028-0.055-0.056-0.109-0.056-0.165c-0.109-0.357-0.273-0.715-0.467-1.072    c-0.055-0.11-0.11-0.192-0.193-0.303c-0.219-0.303-0.439-0.604-0.742-0.88c-0.055-0.055-0.082-0.11-0.137-0.165    c-0.027-0.027-0.027-0.027-0.057-0.055c-0.33-0.303-0.715-0.522-1.071-0.716c-0.028-0.027-0.056-0.055-0.083-0.055L68.355,0.578    C67.613,0.192,66.789,0,65.936,0h-3.52c-0.825,0-1.65,0.192-2.42,0.55L20.419,20.132c-0.028,0-0.028,0.027-0.055,0.027    c-0.357,0.192-0.688,0.385-1.018,0.66c-0.027,0.027-0.055,0.082-0.11,0.11c-0.083,0.082-0.165,0.165-0.22,0.247    c-0.248,0.248-0.467,0.522-0.66,0.798c-0.055,0.109-0.137,0.192-0.192,0.303c-0.22,0.385-0.413,0.797-0.55,1.21c0,0,0,0,0,0.027    c-0.11,0.439-0.165,0.88-0.193,1.32c0,0.055-0.027,0.109-0.027,0.165v80.499c0,1.266,0.44,2.502,1.265,3.492l14.494,17.408    c1.045,1.238,2.558,1.953,4.18,1.953h52.942c0.385,0,0.77-0.055,1.127-0.109c0.083-0.027,0.166-0.055,0.248-0.083    c0.275-0.082,0.551-0.165,0.825-0.274c0.11-0.056,0.22-0.109,0.303-0.164c0.22-0.11,0.44-0.221,0.632-0.385    c0.11-0.084,0.221-0.166,0.33-0.275c0.166-0.139,0.33-0.303,0.496-0.469c0.027-0.055,0.082-0.082,0.137-0.109l15.236-17.408    c0.854-0.99,1.348-2.256,1.348-3.575V25C110.957,25,110.93,24.945,110.93,24.89z M32.987,45.709v54.48l-3.355,1.211    c-0.742,0.248-1.21,0.881-1.347,1.596V40.043L32.987,45.709z M30.375,105.637c0.248,0,0.495-0.056,0.743-0.138l1.897-0.688v4.4    l-3.053-3.658C30.073,105.581,30.209,105.637,30.375,105.637z M43.878,100.934l5.665-2.008c1.128-0.412,1.733-1.649,1.32-2.777    c-0.413-1.127-1.65-1.732-2.778-1.319l-4.208,1.513V47.882h18.124v1.1c0,1.21,0.963,2.173,2.173,2.173s2.173-0.963,2.173-2.173    v-1.1h18.48V96.45l-4.564-1.622c-1.128-0.413-2.365,0.191-2.778,1.318c-0.411,1.129,0.193,2.365,1.32,2.779l6.022,2.146v16.418    H43.852v-16.556H43.878L43.878,100.934z M95.721,104.949l1.541,0.551c0.246,0.082,0.494,0.137,0.742,0.137    c0.082,0,0.164-0.026,0.246-0.026l-2.502,2.86v-3.521H95.721z M98.719,101.401l-2.998-1.072V44.472l4.346-4.979v63.503    C99.929,102.282,99.461,101.676,98.719,101.401z M62.69,11.386c0.385,0.357,0.907,0.605,1.485,0.605c0.578,0,1.1-0.22,1.485-0.605    l31.104,15.401l-8.938,10.231h-21.81c0.192-0.33,0.33-0.688,0.33-1.101v-6.518c0-1.211-0.963-2.173-2.173-2.173    S62,28.188,62,29.399v6.518c0,0.413,0.138,0.771,0.33,1.101H39.892L31.42,26.87L62.69,11.386z"/><path d="M74.131,92.629l-6.133-2.201c-1.127-0.412-2.365,0.192-2.777,1.32c-0.412,1.127,0.193,2.364,1.32,2.777l6.133,2.199    c0.248,0.082,0.494,0.139,0.742,0.139c0.908,0,1.732-0.551,2.035-1.458C75.836,94.278,75.26,93.04,74.131,92.629z"/><path d="M60.379,90.428l-6.16,2.201c-1.128,0.411-1.733,1.648-1.32,2.776c0.33,0.88,1.155,1.458,2.062,1.458    c0.248,0,0.495-0.057,0.743-0.139l6.161-2.199c1.127-0.413,1.732-1.65,1.32-2.777C62.746,90.62,61.507,90.016,60.379,90.428z"/><path d="M66.349,88.118V81.6c0-1.211-0.963-2.172-2.173-2.172c-1.21,0-2.173,0.961-2.173,2.172v6.519    c0,1.21,0.963,2.173,2.173,2.173C65.386,90.291,66.349,89.327,66.349,88.118z"/><path d="M64.175,25.028c1.21,0,2.173-0.963,2.173-2.173v-6.518c0-1.211-0.963-2.173-2.173-2.173c-1.21,0-2.173,0.962-2.173,2.173    v6.518C62.002,24.065,62.965,25.028,64.175,25.028z"/><path d="M64.175,77.254c1.21,0,2.173-0.963,2.173-2.173v-6.545c0-1.211-0.963-2.173-2.173-2.173c-1.21,0-2.173,0.962-2.173,2.173    v6.519C62.002,76.264,62.965,77.254,64.175,77.254z"/><path d="M64.175,64.191c1.21,0,2.173-0.963,2.173-2.173V55.5c0-1.211-0.963-2.173-2.173-2.173c-1.21,0-2.173,0.962-2.173,2.173    v6.518C62.002,63.228,62.965,64.191,64.175,64.191z"/></g><path d="M165,0C74.019,0,0,74.019,0,165s74.019,165,165,165c90.982,0,165-74.019,165-165S255.982,0,165,0z" transform="matrix(0.03030303120613098 0 0 0.03030303120613098 82.5 257.5)" id="L1_18" fill="#8e1555"/><g transform="matrix(-0.46746447682380676 0 0 0.46746447682380676 204.99953257977245 232.5)" id="L1_19"><path d="M110.93,24.89c0-0.44-0.055-0.907-0.192-1.32c-0.028-0.055-0.056-0.109-0.056-0.165c-0.109-0.357-0.273-0.715-0.467-1.072    c-0.055-0.11-0.11-0.192-0.193-0.303c-0.219-0.303-0.439-0.604-0.742-0.88c-0.055-0.055-0.082-0.11-0.137-0.165    c-0.027-0.027-0.027-0.027-0.057-0.055c-0.33-0.303-0.715-0.522-1.071-0.716c-0.028-0.027-0.056-0.055-0.083-0.055L68.355,0.578    C67.613,0.192,66.789,0,65.936,0h-3.52c-0.825,0-1.65,0.192-2.42,0.55L20.419,20.132c-0.028,0-0.028,0.027-0.055,0.027    c-0.357,0.192-0.688,0.385-1.018,0.66c-0.027,0.027-0.055,0.082-0.11,0.11c-0.083,0.082-0.165,0.165-0.22,0.247    c-0.248,0.248-0.467,0.522-0.66,0.798c-0.055,0.109-0.137,0.192-0.192,0.303c-0.22,0.385-0.413,0.797-0.55,1.21c0,0,0,0,0,0.027    c-0.11,0.439-0.165,0.88-0.193,1.32c0,0.055-0.027,0.109-0.027,0.165v80.499c0,1.266,0.44,2.502,1.265,3.492l14.494,17.408    c1.045,1.238,2.558,1.953,4.18,1.953h52.942c0.385,0,0.77-0.055,1.127-0.109c0.083-0.027,0.166-0.055,0.248-0.083    c0.275-0.082,0.551-0.165,0.825-0.274c0.11-0.056,0.22-0.109,0.303-0.164c0.22-0.11,0.44-0.221,0.632-0.385    c0.11-0.084,0.221-0.166,0.33-0.275c0.166-0.139,0.33-0.303,0.496-0.469c0.027-0.055,0.082-0.082,0.137-0.109l15.236-17.408    c0.854-0.99,1.348-2.256,1.348-3.575V25C110.957,25,110.93,24.945,110.93,24.89z M32.987,45.709v54.48l-3.355,1.211    c-0.742,0.248-1.21,0.881-1.347,1.596V40.043L32.987,45.709z M30.375,105.637c0.248,0,0.495-0.056,0.743-0.138l1.897-0.688v4.4    l-3.053-3.658C30.073,105.581,30.209,105.637,30.375,105.637z M43.878,100.934l5.665-2.008c1.128-0.412,1.733-1.649,1.32-2.777    c-0.413-1.127-1.65-1.732-2.778-1.319l-4.208,1.513V47.882h18.124v1.1c0,1.21,0.963,2.173,2.173,2.173s2.173-0.963,2.173-2.173    v-1.1h18.48V96.45l-4.564-1.622c-1.128-0.413-2.365,0.191-2.778,1.318c-0.411,1.129,0.193,2.365,1.32,2.779l6.022,2.146v16.418    H43.852v-16.556H43.878L43.878,100.934z M95.721,104.949l1.541,0.551c0.246,0.082,0.494,0.137,0.742,0.137    c0.082,0,0.164-0.026,0.246-0.026l-2.502,2.86v-3.521H95.721z M98.719,101.401l-2.998-1.072V44.472l4.346-4.979v63.503    C99.929,102.282,99.461,101.676,98.719,101.401z M62.69,11.386c0.385,0.357,0.907,0.605,1.485,0.605c0.578,0,1.1-0.22,1.485-0.605    l31.104,15.401l-8.938,10.231h-21.81c0.192-0.33,0.33-0.688,0.33-1.101v-6.518c0-1.211-0.963-2.173-2.173-2.173    S62,28.188,62,29.399v6.518c0,0.413,0.138,0.771,0.33,1.101H39.892L31.42,26.87L62.69,11.386z"/><path d="M74.131,92.629l-6.133-2.201c-1.127-0.412-2.365,0.192-2.777,1.32c-0.412,1.127,0.193,2.364,1.32,2.777l6.133,2.199    c0.248,0.082,0.494,0.139,0.742,0.139c0.908,0,1.732-0.551,2.035-1.458C75.836,94.278,75.26,93.04,74.131,92.629z"/><path d="M60.379,90.428l-6.16,2.201c-1.128,0.411-1.733,1.648-1.32,2.776c0.33,0.88,1.155,1.458,2.062,1.458    c0.248,0,0.495-0.057,0.743-0.139l6.161-2.199c1.127-0.413,1.732-1.65,1.32-2.777C62.746,90.62,61.507,90.016,60.379,90.428z"/><path d="M66.349,88.118V81.6c0-1.211-0.963-2.172-2.173-2.172c-1.21,0-2.173,0.961-2.173,2.172v6.519    c0,1.21,0.963,2.173,2.173,2.173C65.386,90.291,66.349,89.327,66.349,88.118z"/><path d="M64.175,25.028c1.21,0,2.173-0.963,2.173-2.173v-6.518c0-1.211-0.963-2.173-2.173-2.173c-1.21,0-2.173,0.962-2.173,2.173    v6.518C62.002,24.065,62.965,25.028,64.175,25.028z"/><path d="M64.175,77.254c1.21,0,2.173-0.963,2.173-2.173v-6.545c0-1.211-0.963-2.173-2.173-2.173c-1.21,0-2.173,0.962-2.173,2.173    v6.519C62.002,76.264,62.965,77.254,64.175,77.254z"/><path d="M64.175,64.191c1.21,0,2.173-0.963,2.173-2.173V55.5c0-1.211-0.963-2.173-2.173-2.173c-1.21,0-2.173,0.962-2.173,2.173    v6.518C62.002,63.228,62.965,64.191,64.175,64.191z"/></g><path d="M7.308,89.374h3.713l23.387,30.344c1.391,1.81,3.534,2.849,5.788,2.849c0.263,0,0.533-0.015,0.799-0.043    c2.533-0.277,4.741-1.858,5.822-4.168L91.131,23.6h33.109c4.037,0,7.309-3.272,7.309-7.308c0-4.037-3.271-7.309-7.309-7.309H86.48    c-2.838,0-5.418,1.642-6.621,4.212l-41.201,88.097L20.405,77.604c-1.381-1.795-3.521-2.848-5.788-2.848H7.308    C3.272,74.756,0,78.027,0,82.065S3.272,89.374,7.308,89.374z" transform="matrix(0.6841557025909424 0 0 0.6841557025909424 305 305)" id="L1_20"/><path d="M7.308,89.374h3.713l23.387,30.344c1.391,1.81,3.534,2.849,5.788,2.849c0.263,0,0.533-0.015,0.799-0.043    c2.533-0.277,4.741-1.858,5.822-4.168L91.131,23.6h33.109c4.037,0,7.309-3.272,7.309-7.308c0-4.037-3.271-7.309-7.309-7.309H86.48    c-2.838,0-5.418,1.642-6.621,4.212l-41.201,88.097L20.405,77.604c-1.381-1.795-3.521-2.848-5.788-2.848H7.308    C3.272,74.756,0,78.027,0,82.065S3.272,89.374,7.308,89.374z" transform="matrix(-0.4561038017272949 0 0 0.4561038017272949 117.24959802627563 57.49999930404084)" id="L1_21"/><g transform="matrix(0.26917538046836853 0 0 0.26917538046836853 242.5 67.5)" id="L1_22"><path d="M74.301,0C33.333,0,0,33.333,0,74.301c0,40.969,33.333,74.301,74.301,74.301c40.969,0,74.301-33.332,74.301-74.301    C148.602,33.333,115.27,0,74.301,0z M132.768,77.954h3.537c-1.897,32.56-28.978,58.468-62.004,58.468    c-34.254,0-62.121-27.867-62.121-62.121c0-34.253,27.867-62.12,62.121-62.12c33.846,0,61.436,27.211,62.09,60.902h-3.623    c-1.348,0-2.437,1.089-2.437,2.437S131.42,77.954,132.768,77.954z"/><path d="M110.842,73.083h-7.308c-1.349,0-2.437,1.089-2.437,2.437s1.088,2.436,2.437,2.436h7.308c1.348,0,2.438-1.088,2.438-2.436    C113.277,74.172,112.189,73.083,110.842,73.083z"/><path d="M96.227,73.083h-7.309c-1.348,0-2.438,1.089-2.438,2.437s1.09,2.436,2.438,2.436h7.309c1.347,0,2.437-1.088,2.437-2.436    C98.662,74.172,97.572,73.083,96.227,73.083z"/><path d="M125.459,73.083h-7.309c-1.349,0-2.437,1.089-2.437,2.437s1.088,2.436,2.437,2.436h7.309c1.348,0,2.436-1.088,2.436-2.436    S126.807,73.083,125.459,73.083z"/><path d="M81.609,73.083H74.3c-1.347,0-2.436,1.089-2.436,2.437s1.089,2.436,2.436,2.436h7.31c1.347,0,2.436-1.088,2.436-2.436    S82.956,73.083,81.609,73.083z"/></g><path d="M125.46,43.851c4.037,0,7.31-3.271,7.31-7.308s-3.271-7.308-7.31-7.308h-13.026l11.818-17.898    c2.225-3.369,1.296-7.903-2.07-10.127c-3.369-2.224-7.904-1.296-10.127,2.07L94.915,29.235h-39.56    c-24.478,0-44.391,17.727-44.391,39.518v6.769v1.896c0,16.743,11.011,32.36,25.845,39.809l-10.02,15.172    c-2.224,3.369-1.296,7.903,2.071,10.127c1.242,0.816,2.641,1.209,4.022,1.209c2.373,0,4.702-1.154,6.105-3.281l12.458-18.865    c1.296,0.132,2.6,0.22,3.91,0.22h70.105c4.037,0,7.309-3.271,7.309-7.31c0-4.036-3.271-7.308-7.309-7.308H60.953L77.04,82.828    h19.188c4.037,0,7.31-3.271,7.31-7.309c0-4.037-3.272-7.309-7.31-7.309h-9.535L102.78,43.85L125.46,43.851L125.46,43.851    L125.46,43.851z M44.955,104.891c-9.057-3.958-16.585-12.58-18.743-22.062h33.311L44.955,104.891z M69.174,68.213h-43.56    c0.366-15.058,15.594-24.361,29.74-24.361h29.908L69.174,68.213z" transform="matrix(0.13914689421653748 0 0 0.13914689421653748 165 165)" id="L1_23"/></defs><g fi:class="KUsePattern"><pattern id="pattern_L1_17" width="350" height="350" patternUnits="userSpaceOnUse"><use xlink:href="#L1_17" x="-350" y="-350"/><use xlink:href="#L1_17" x="0" y="-350"/><use xlink:href="#L1_17" x="350" y="-350"/><use xlink:href="#L1_17" x="-350" y="0"/><use xlink:href="#L1_17" x="0" y="0"/><use xlink:href="#L1_17" x="350" y="0"/><use xlink:href="#L1_17" x="-350" y="350"/><use xlink:href="#L1_17" x="0" y="350"/><use xlink:href="#L1_17" x="350" y="350"/></pattern><rect x="0" y="0" width="100%" height="100%" fill="url(#pattern_L1_17)"/></g><g fi:class="KUsePattern"><pattern id="pattern_L1_16" width="350" height="350" patternUnits="userSpaceOnUse"><use xlink:href="#L1_16" x="-350" y="-350"/><use xlink:href="#L1_16" x="0" y="-350"/><use xlink:href="#L1_16" x="350" y="-350"/><use xlink:href="#L1_16" x="-350" y="0"/><use xlink:href="#L1_16" x="0" y="0"/><use xlink:href="#L1_16" x="350" y="0"/><use xlink:href="#L1_16" x="-350" y="350"/><use xlink:href="#L1_16" x="0" y="350"/><use xlink:href="#L1_16" x="350" y="350"/></pattern><rect x="0" y="0" width="100%" height="100%" fill="url(#pattern_L1_16)"/></g><g fi:class="KUsePattern"><pattern id="pattern_L1_18" width="350" height="350" patternUnits="userSpaceOnUse"><use xlink:href="#L1_18" x="-350" y="-350"/><use xlink:href="#L1_18" x="0" y="-350"/><use xlink:href="#L1_18" x="350" y="-350"/><use xlink:href="#L1_18" x="-350" y="0"/><use xlink:href="#L1_18" x="0" y="0"/><use xlink:href="#L1_18" x="350" y="0"/><use xlink:href="#L1_18" x="-350" y="350"/><use xlink:href="#L1_18" x="0" y="350"/><use xlink:href="#L1_18" x="350" y="350"/></pattern><rect x="0" y="0" width="100%" height="100%" fill="url(#pattern_L1_18)"/></g><g fi:class="KUsePattern"><pattern id="pattern_L1_19" width="350" height="350" patternUnits="userSpaceOnUse"><use xlink:href="#L1_19" x="-350" y="-350"/><use xlink:href="#L1_19" x="0" y="-350"/><use xlink:href="#L1_19" x="350" y="-350"/><use xlink:href="#L1_19" x="-350" y="0"/><use xlink:href="#L1_19" x="0" y="0"/><use xlink:href="#L1_19" x="350" y="0"/><use xlink:href="#L1_19" x="-350" y="350"/><use xlink:href="#L1_19" x="0" y="350"/><use xlink:href="#L1_19" x="350" y="350"/></pattern><rect x="0" y="0" width="100%" height="100%" fill="url(#pattern_L1_19)"/></g><g fi:class="KUsePattern"><pattern id="pattern_L1_20" width="350" height="350" patternUnits="userSpaceOnUse"><use xlink:href="#L1_20" x="-350" y="-350"/><use xlink:href="#L1_20" x="0" y="-350"/><use xlink:href="#L1_20" x="350" y="-350"/><use xlink:href="#L1_20" x="-350" y="0"/><use xlink:href="#L1_20" x="0" y="0"/><use xlink:href="#L1_20" x="350" y="0"/><use xlink:href="#L1_20" x="-350" y="350"/><use xlink:href="#L1_20" x="0" y="350"/><use xlink:href="#L1_20" x="350" y="350"/></pattern><rect x="0" y="0" width="100%" height="100%" fill="url(#pattern_L1_20)"/></g><g fi:class="KUsePattern"><pattern id="pattern_L1_21" width="350" height="350" patternUnits="userSpaceOnUse"><use xlink:href="#L1_21" x="-350" y="-350"/><use xlink:href="#L1_21" x="0" y="-350"/><use xlink:href="#L1_21" x="350" y="-350"/><use xlink:href="#L1_21" x="-350" y="0"/><use xlink:href="#L1_21" x="0" y="0"/><use xlink:href="#L1_21" x="350" y="0"/><use xlink:href="#L1_21" x="-350" y="350"/><use xlink:href="#L1_21" x="0" y="350"/><use xlink:href="#L1_21" x="350" y="350"/></pattern><rect x="0" y="0" width="100%" height="100%" fill="url(#pattern_L1_21)"/></g><g fi:class="KUsePattern"><pattern id="pattern_L1_22" width="350" height="350" patternUnits="userSpaceOnUse"><use xlink:href="#L1_22" x="-350" y="-350"/><use xlink:href="#L1_22" x="0" y="-350"/><use xlink:href="#L1_22" x="350" y="-350"/><use xlink:href="#L1_22" x="-350" y="0"/><use xlink:href="#L1_22" x="0" y="0"/><use xlink:href="#L1_22" x="350" y="0"/><use xlink:href="#L1_22" x="-350" y="350"/><use xlink:href="#L1_22" x="0" y="350"/><use xlink:href="#L1_22" x="350" y="350"/></pattern><rect x="0" y="0" width="100%" height="100%" fill="url(#pattern_L1_22)"/></g><g fi:class="KUsePattern"><pattern id="pattern_L1_23" width="350" height="350" patternUnits="userSpaceOnUse"><use xlink:href="#L1_23" x="-350" y="-350"/><use xlink:href="#L1_23" x="0" y="-350"/><use xlink:href="#L1_23" x="350" y="-350"/><use xlink:href="#L1_23" x="-350" y="0"/><use xlink:href="#L1_23" x="0" y="0"/><use xlink:href="#L1_23" x="350" y="0"/><use xlink:href="#L1_23" x="-350" y="350"/><use xlink:href="#L1_23" x="0" y="350"/><use xlink:href="#L1_23" x="350" y="350"/></pattern><rect x="0" y="0" width="100%" height="100%" fill="url(#pattern_L1_23)"/></g></svg>